<svg width="783" height="211" viewBox="0 0 783 211" fill="none" xmlns="http://www.w3.org/2000/svg">
<path d="M0 53C0 23.7289 23.7289 0 53 0H158C187.271 0 211 23.7289 211 53V158C211 187.271 187.271 211 158 211H53C23.7289 211 0 187.271 0 158V53Z" fill="#F6450D"/>
<g filter="url(#filter0_i_126_10)">
<path d="M160.25 54.25L152 73.375C144.75 90.2917 139.042 103.833 134.875 114C130.708 124.167 126.875 134.5 123.375 145H86C82.5833 134.667 78.7917 124.458 74.625 114.375C70.5417 104.208 65.0417 91.2083 58.125 75.375C56.9583 72.7083 53.9167 65.6667 49 54.25H83.75C86.25 62.3333 89.9583 72.7083 94.875 85.375C99.2083 96.5417 102.708 106.208 105.375 114.375C107.125 108.625 109.208 102.5 111.625 96C114.125 89.4167 115.625 85.4167 116.125 84C120.958 71.25 124.5 61.3333 126.75 54.25H160.25Z" fill="white"/>
</g>
<path d="M265.727 69.3945C265.523 68.5482 265.507 67.8542 265.676 67.3125C265.879 66.7708 266.302 66.3477 266.945 66.043C267.622 65.7044 268.57 65.4844 269.789 65.3828C271.008 65.2474 272.565 65.1797 274.461 65.1797C276.594 65.1797 278.27 65.2474 279.488 65.3828C280.741 65.4844 281.689 65.6875 282.332 65.9922C283.009 66.2969 283.466 66.737 283.703 67.3125C283.94 67.8542 284.109 68.5482 284.211 69.3945L292.031 130.738H293.656L301.273 69.3945C301.375 68.5482 301.527 67.8542 301.73 67.3125C301.967 66.737 302.391 66.2969 303 65.9922C303.643 65.6875 304.54 65.4844 305.691 65.3828C306.876 65.2474 308.484 65.1797 310.516 65.1797C312.411 65.1797 313.969 65.2474 315.188 65.3828C316.406 65.4844 317.337 65.7044 317.98 66.043C318.658 66.3477 319.081 66.7708 319.25 67.3125C319.419 67.8542 319.419 68.5482 319.25 69.3945L302.34 147.547C302.137 148.292 301.866 148.901 301.527 149.375C301.223 149.815 300.732 150.154 300.055 150.391C299.378 150.628 298.464 150.797 297.312 150.898C296.195 150.966 294.74 151 292.945 151C291.049 151 289.509 150.966 288.324 150.898C287.139 150.797 286.191 150.628 285.48 150.391C284.77 150.154 284.228 149.815 283.855 149.375C283.517 148.901 283.246 148.292 283.043 147.547L265.727 69.3945ZM326.613 104.789C326.512 102.081 327.07 99.7617 328.289 97.832C329.542 95.8685 331.201 94.2604 333.266 93.0078C335.365 91.7552 337.751 90.8411 340.426 90.2656C343.134 89.6562 345.893 89.3516 348.703 89.3516C351.378 89.3516 354.001 89.6562 356.574 90.2656C359.147 90.8411 361.432 91.7552 363.43 93.0078C365.427 94.2604 367.001 95.8685 368.152 97.832C369.337 99.7617 369.879 102.081 369.777 104.789L369.016 123.527C368.982 124.171 368.863 124.678 368.66 125.051C368.491 125.423 368.152 125.711 367.645 125.914C367.137 126.117 366.409 126.253 365.461 126.32C364.547 126.388 363.328 126.422 361.805 126.422H342L341.695 137.391C341.661 138.677 341.78 139.76 342.051 140.641C342.355 141.521 342.796 142.232 343.371 142.773C343.947 143.315 344.658 143.704 345.504 143.941C346.35 144.178 347.315 144.297 348.398 144.297C350.565 144.297 352.156 143.823 353.172 142.875C354.188 141.927 354.695 140.251 354.695 137.848V136.273C354.695 135.63 354.78 135.105 354.949 134.699C355.118 134.259 355.44 133.921 355.914 133.684C356.422 133.413 357.133 133.227 358.047 133.125C358.961 133.023 360.18 132.973 361.703 132.973C363.193 132.973 364.395 133.023 365.309 133.125C366.223 133.227 366.917 133.413 367.391 133.684C367.898 133.921 368.22 134.242 368.355 134.648C368.525 135.055 368.609 135.579 368.609 136.223V138.457C368.609 141.132 368.034 143.315 366.883 145.008C365.732 146.701 364.208 148.038 362.312 149.02C360.451 150.001 358.301 150.678 355.863 151.051C353.46 151.423 350.988 151.609 348.449 151.609C345.876 151.609 343.371 151.372 340.934 150.898C338.496 150.391 336.312 149.578 334.383 148.461C332.487 147.31 330.93 145.803 329.711 143.941C328.526 142.079 327.883 139.76 327.781 136.984L326.613 104.789ZM354.695 118.805L354.188 103.926C354.154 102.504 353.984 101.353 353.68 100.473C353.409 99.5924 353.02 98.9154 352.512 98.4414C352.038 97.9674 351.462 97.6628 350.785 97.5273C350.142 97.3581 349.448 97.2734 348.703 97.2734C347.857 97.2734 347.078 97.3581 346.367 97.5273C345.656 97.6628 345.03 97.9674 344.488 98.4414C343.98 98.9154 343.557 99.5924 343.219 100.473C342.914 101.353 342.745 102.504 342.711 103.926L342.254 118.805H354.695ZM381.051 93.668C381.051 92.957 381.118 92.3646 381.254 91.8906C381.423 91.3828 381.762 90.9935 382.27 90.7227C382.811 90.4518 383.59 90.2656 384.605 90.1641C385.655 90.0286 387.043 89.9609 388.77 89.9609C390.496 89.9609 391.867 90.0286 392.883 90.1641C393.932 90.2656 394.711 90.4518 395.219 90.7227C395.76 90.9935 396.099 91.3828 396.234 91.8906C396.404 92.3646 396.488 92.957 396.488 93.668L396.387 96.7656C397.335 95.6823 398.299 94.7005 399.281 93.8203C400.297 92.9062 401.363 92.1276 402.48 91.4844C403.632 90.8073 404.85 90.2826 406.137 89.9102C407.423 89.5378 408.828 89.3516 410.352 89.3516C412.417 89.3516 414.329 89.724 416.09 90.4688C417.884 91.2135 419.408 92.2969 420.66 93.7188C421.947 95.1406 422.928 96.8672 423.605 98.8984C424.316 100.93 424.638 103.232 424.57 105.805L423.352 148.105C423.352 148.749 423.267 149.257 423.098 149.629C422.928 150.001 422.607 150.289 422.133 150.492C421.659 150.695 420.982 150.831 420.102 150.898C419.255 150.966 418.121 151 416.699 151C415.277 151 414.126 150.966 413.246 150.898C412.4 150.831 411.74 150.695 411.266 150.492C410.826 150.289 410.521 150.001 410.352 149.629C410.182 149.257 410.098 148.749 410.098 148.105L408.93 107.277C408.896 105.957 408.727 104.857 408.422 103.977C408.117 103.096 407.711 102.402 407.203 101.895C406.695 101.387 406.086 101.031 405.375 100.828C404.698 100.625 403.953 100.523 403.141 100.523C401.854 100.523 400.72 100.879 399.738 101.59C398.757 102.301 397.91 103.147 397.199 104.129L395.93 148.105C395.93 148.749 395.845 149.257 395.676 149.629C395.507 150.001 395.185 150.289 394.711 150.492C394.237 150.695 393.56 150.831 392.68 150.898C391.833 150.966 390.699 151 389.277 151C387.855 151 386.704 150.966 385.824 150.898C384.978 150.831 384.318 150.695 383.844 150.492C383.404 150.289 383.099 150.001 382.93 149.629C382.76 149.257 382.676 148.749 382.676 148.105L381.051 93.668ZM435.895 106.16C435.827 103.723 436.148 101.471 436.859 99.4062C437.57 97.3411 438.603 95.5638 439.957 94.0742C441.345 92.5846 443.004 91.4336 444.934 90.6211C446.863 89.7747 449.013 89.3516 451.383 89.3516C452.805 89.3516 454.125 89.5378 455.344 89.9102C456.562 90.2826 457.68 90.7565 458.695 91.332C459.711 91.8737 460.608 92.4831 461.387 93.1602C462.199 93.8372 462.893 94.4805 463.469 95.0898L462.91 67.1602C462.91 66.4492 462.978 65.8568 463.113 65.3828C463.283 64.875 463.655 64.4857 464.23 64.2148C464.806 63.944 465.635 63.7578 466.719 63.6562C467.836 63.5208 469.309 63.4531 471.137 63.4531C472.965 63.4531 474.421 63.5208 475.504 63.6562C476.621 63.7578 477.467 63.944 478.043 64.2148C478.618 64.4857 478.974 64.875 479.109 65.3828C479.279 65.8568 479.363 66.4492 479.363 67.1602L477.789 148.105C477.789 148.749 477.704 149.257 477.535 149.629C477.366 150.001 477.044 150.289 476.57 150.492C476.096 150.695 475.419 150.831 474.539 150.898C473.693 150.966 472.559 151 471.137 151C469.816 151 468.75 150.966 467.938 150.898C467.159 150.831 466.549 150.695 466.109 150.492C465.703 150.289 465.415 150.001 465.246 149.629C465.111 149.257 465.043 148.749 465.043 148.105V146.176C464.332 146.819 463.503 147.462 462.555 148.105C461.641 148.749 460.608 149.341 459.457 149.883C458.306 150.391 457.053 150.797 455.699 151.102C454.345 151.44 452.889 151.609 451.332 151.609C449.132 151.609 447.151 151.305 445.391 150.695C443.664 150.086 442.174 149.121 440.922 147.801C439.703 146.447 438.738 144.703 438.027 142.57C437.316 140.404 436.91 137.797 436.809 134.75L435.895 106.16ZM450.824 134.75C450.757 137.255 451.332 139.185 452.551 140.539C453.803 141.859 455.513 142.52 457.68 142.52C459.102 142.52 460.371 142.266 461.488 141.758C462.639 141.216 463.604 140.607 464.383 139.93L463.621 102.453C462.809 101.776 461.844 101.184 460.727 100.676C459.609 100.134 458.475 99.8633 457.324 99.8633C456.579 99.8633 455.868 99.9818 455.191 100.219C454.514 100.422 453.905 100.777 453.363 101.285C452.855 101.759 452.432 102.402 452.094 103.215C451.789 104.027 451.62 105.009 451.586 106.16L450.824 134.75ZM491.145 104.789C491.043 102.081 491.585 99.7617 492.77 97.832C493.988 95.8685 495.613 94.2604 497.645 93.0078C499.71 91.7552 502.079 90.8411 504.754 90.2656C507.428 89.6562 510.171 89.3516 512.98 89.3516C515.79 89.3516 518.533 89.6562 521.207 90.2656C523.882 90.8411 526.234 91.7552 528.266 93.0078C530.331 94.2604 531.956 95.8685 533.141 97.832C534.359 99.7617 534.918 102.081 534.816 104.789L533.648 136.934C533.547 139.71 532.904 142.046 531.719 143.941C530.534 145.803 528.993 147.31 527.098 148.461C525.202 149.578 523.035 150.391 520.598 150.898C518.16 151.372 515.638 151.609 513.031 151.609C510.391 151.609 507.852 151.372 505.414 150.898C502.977 150.391 500.793 149.578 498.863 148.461C496.967 147.31 495.427 145.803 494.242 143.941C493.057 142.079 492.414 139.76 492.312 136.984L491.145 104.789ZM506.227 137.391C506.193 138.677 506.294 139.76 506.531 140.641C506.802 141.521 507.208 142.232 507.75 142.773C508.326 143.315 509.036 143.704 509.883 143.941C510.763 144.178 511.796 144.297 512.98 144.297C515.35 144.297 517.077 143.789 518.16 142.773C519.277 141.758 519.802 139.947 519.734 137.34L518.719 103.926C518.685 102.504 518.516 101.353 518.211 100.473C517.94 99.5924 517.551 98.9154 517.043 98.4414C516.535 97.9674 515.943 97.6628 515.266 97.5273C514.589 97.3581 513.827 97.2734 512.98 97.2734C512.134 97.2734 511.372 97.3581 510.695 97.5273C510.018 97.6628 509.426 97.9674 508.918 98.4414C508.41 98.9154 508.004 99.5924 507.699 100.473C507.428 101.353 507.276 102.504 507.242 103.926L506.227 137.391ZM546.598 93.668C546.598 92.957 546.665 92.3646 546.801 91.8906C546.97 91.3828 547.309 90.9935 547.816 90.7227C548.358 90.4518 549.137 90.2656 550.152 90.1641C551.202 90.0286 552.59 89.9609 554.316 89.9609C556.043 89.9609 557.414 90.0286 558.43 90.1641C559.445 90.2656 560.224 90.4518 560.766 90.7227C561.307 90.9935 561.646 91.3828 561.781 91.8906C561.951 92.3646 562.035 92.957 562.035 93.668V96.6641C562.983 95.6146 563.948 94.6497 564.93 93.7695C565.945 92.8555 566.995 92.0768 568.078 91.4336C569.195 90.7904 570.363 90.2826 571.582 89.9102C572.835 89.5378 574.172 89.3516 575.594 89.3516C577.219 89.3516 578.725 89.5885 580.113 90.0625C581.535 90.5365 582.737 91.2982 583.719 92.3477C584.734 93.3971 585.513 94.7682 586.055 96.4609C586.596 98.1198 586.833 100.151 586.766 102.555L586.41 114.234C586.41 114.878 586.309 115.385 586.105 115.758C585.936 116.13 585.598 116.418 585.09 116.621C584.582 116.824 583.854 116.96 582.906 117.027C581.992 117.095 580.773 117.129 579.25 117.129C577.727 117.129 576.508 117.095 575.594 117.027C574.68 116.96 573.969 116.824 573.461 116.621C572.987 116.418 572.665 116.13 572.496 115.758C572.361 115.385 572.276 114.878 572.242 114.234L572.039 107.277C572.005 105.957 571.887 104.857 571.684 103.977C571.48 103.096 571.193 102.402 570.82 101.895C570.482 101.387 570.076 101.031 569.602 100.828C569.128 100.625 568.586 100.523 567.977 100.523C566.995 100.523 566.047 100.896 565.133 101.641C564.253 102.385 563.457 103.215 562.746 104.129L561.477 148.105C561.477 148.749 561.392 149.257 561.223 149.629C561.053 150.001 560.732 150.289 560.258 150.492C559.784 150.695 559.107 150.831 558.227 150.898C557.38 150.966 556.246 151 554.824 151C553.402 151 552.251 150.966 551.371 150.898C550.525 150.831 549.865 150.695 549.391 150.492C548.951 150.289 548.646 150.001 548.477 149.629C548.307 149.257 548.223 148.749 548.223 148.105L546.598 93.668ZM596.719 146.074C596.719 144.889 596.837 143.941 597.074 143.23C597.345 142.486 597.768 141.792 598.344 141.148L621.703 109.715C622.448 108.801 623.091 107.971 623.633 107.227C624.174 106.482 624.598 105.703 624.902 104.891C625.241 104.078 625.478 103.198 625.613 102.25C625.749 101.302 625.799 100.168 625.766 98.8477L625.207 80.4648C625.173 79.0091 625.004 77.8411 624.699 76.9609C624.395 76.0469 623.954 75.3698 623.379 74.9297C622.837 74.4557 622.143 74.151 621.297 74.0156C620.484 73.8464 619.536 73.7617 618.453 73.7617C617.37 73.7617 616.405 73.8464 615.559 74.0156C614.746 74.151 614.052 74.4557 613.477 74.9297C612.935 75.3698 612.512 76.0469 612.207 76.9609C611.936 77.8411 611.784 79.0091 611.75 80.4648L611.141 101.996C611.107 103.012 610.954 103.841 610.684 104.484C610.413 105.094 609.973 105.568 609.363 105.906C608.754 106.211 607.941 106.414 606.926 106.516C605.91 106.617 604.658 106.668 603.168 106.668C601.678 106.668 600.443 106.617 599.461 106.516C598.479 106.414 597.701 106.211 597.125 105.906C596.549 105.568 596.126 105.094 595.855 104.484C595.618 103.841 595.483 103.012 595.449 101.996L593.926 80.8711C593.858 78.332 594.349 76.0638 595.398 74.0664C596.482 72.0352 598.073 70.3255 600.172 68.9375C602.271 67.5495 604.844 66.4831 607.891 65.7383C610.971 64.9935 614.492 64.6211 618.453 64.6211C622.312 64.6211 625.749 64.9935 628.762 65.7383C631.775 66.4831 634.314 67.5495 636.379 68.9375C638.444 70.3255 640.001 72.0352 641.051 74.0664C642.134 76.0638 642.642 78.332 642.574 80.8711L641.457 102.504C641.423 103.655 641.288 104.738 641.051 105.754C640.848 106.736 640.509 107.701 640.035 108.648C639.595 109.596 639.02 110.544 638.309 111.492C637.598 112.44 636.751 113.422 635.77 114.438L612.562 141.148V141.555H636.988C637.868 141.555 638.546 141.656 639.02 141.859C639.527 142.062 639.9 142.367 640.137 142.773C640.374 143.146 640.509 143.603 640.543 144.145C640.611 144.652 640.645 145.228 640.645 145.871C640.645 146.819 640.611 147.615 640.543 148.258C640.509 148.901 640.374 149.426 640.137 149.832C639.9 150.238 639.527 150.543 639.02 150.746C638.546 150.915 637.868 151 636.988 151H600.375C599.63 151 599.021 150.966 598.547 150.898C598.073 150.797 597.701 150.628 597.43 150.391C597.159 150.12 596.973 149.764 596.871 149.324C596.77 148.884 596.719 148.309 596.719 147.598V146.074ZM654.508 132.465C654 132.465 653.408 132.414 652.73 132.312C652.087 132.177 651.461 131.991 650.852 131.754C650.276 131.483 649.785 131.145 649.379 130.738C648.973 130.332 648.77 129.858 648.77 129.316V127.641C648.77 126.625 648.922 125.643 649.227 124.695C649.565 123.747 649.921 122.749 650.293 121.699L667.051 69.9531C667.389 68.9036 667.796 68.0742 668.27 67.4648C668.743 66.8216 669.353 66.3307 670.098 65.9922C670.876 65.6536 671.824 65.4336 672.941 65.332C674.059 65.2305 675.464 65.1797 677.156 65.1797C681.151 65.1797 683.826 65.6029 685.18 66.4492C686.568 67.2956 686.906 68.582 686.195 70.3086L665.172 122.512H680.203L679.695 104.434C679.661 103.553 679.78 102.842 680.051 102.301C680.355 101.759 680.846 101.336 681.523 101.031C682.234 100.727 683.132 100.523 684.215 100.422C685.332 100.286 686.686 100.219 688.277 100.219C690.072 100.219 691.477 100.27 692.492 100.371C693.542 100.473 694.303 100.676 694.777 100.98C695.285 101.251 695.59 101.674 695.691 102.25C695.827 102.792 695.878 103.52 695.844 104.434L694.625 147.547C694.591 148.326 694.439 148.952 694.168 149.426C693.931 149.866 693.508 150.204 692.898 150.441C692.323 150.678 691.578 150.831 690.664 150.898C689.75 150.966 688.616 151 687.262 151C685.908 151 684.824 150.966 684.012 150.898C683.199 150.831 682.556 150.678 682.082 150.441C681.642 150.204 681.337 149.866 681.168 149.426C680.999 148.952 680.914 148.326 680.914 147.547L680.457 132.465H656.031H654.508Z" fill="white"/>
<defs>
<filter id="filter0_i_126_10" x="49" y="54.25" width="111.25" height="94.75" filterUnits="userSpaceOnUse" color-interpolation-filters="sRGB">
<feFlood flood-opacity="0" result="BackgroundImageFix"/>
<feBlend mode="normal" in="SourceGraphic" in2="BackgroundImageFix" result="shape"/>
<feColorMatrix in="SourceAlpha" type="matrix" values="0 0 0 0 0 0 0 0 0 0 0 0 0 0 0 0 0 0 127 0" result="hardAlpha"/>
<feOffset dy="4"/>
<feGaussianBlur stdDeviation="2"/>
<feComposite in2="hardAlpha" operator="arithmetic" k2="-1" k3="1"/>
<feColorMatrix type="matrix" values="0 0 0 0 0 0 0 0 0 0 0 0 0 0 0 0 0 0 0.25 0"/>
<feBlend mode="normal" in2="shape" result="effect1_innerShadow_126_10"/>
</filter>
</defs>
</svg>
