<svg width="211" height="211" viewBox="0 0 211 211" fill="none" xmlns="http://www.w3.org/2000/svg">
<path d="M0 53C0 23.7289 23.7289 0 53 0H158C187.271 0 211 23.7289 211 53V158C211 187.271 187.271 211 158 211H53C23.7289 211 0 187.271 0 158V53Z" fill="#F6450D"/>
<g filter="url(#filter0_i_125_5)">
<path d="M160.25 54.25L152 73.375C144.75 90.2917 139.042 103.833 134.875 114C130.708 124.167 126.875 134.5 123.375 145H86C82.5833 134.667 78.7917 124.458 74.625 114.375C70.5417 104.208 65.0417 91.2083 58.125 75.375C56.9583 72.7083 53.9167 65.6667 49 54.25H83.75C86.25 62.3333 89.9583 72.7083 94.875 85.375C99.2083 96.5417 102.708 106.208 105.375 114.375C107.125 108.625 109.208 102.5 111.625 96C114.125 89.4167 115.625 85.4167 116.125 84C120.958 71.25 124.5 61.3333 126.75 54.25H160.25Z" fill="white"/>
</g>
<defs>
<filter id="filter0_i_125_5" x="49" y="54.25" width="111.25" height="94.75" filterUnits="userSpaceOnUse" color-interpolation-filters="sRGB">
<feFlood flood-opacity="0" result="BackgroundImageFix"/>
<feBlend mode="normal" in="SourceGraphic" in2="BackgroundImageFix" result="shape"/>
<feColorMatrix in="SourceAlpha" type="matrix" values="0 0 0 0 0 0 0 0 0 0 0 0 0 0 0 0 0 0 127 0" result="hardAlpha"/>
<feOffset dy="4"/>
<feGaussianBlur stdDeviation="2"/>
<feComposite in2="hardAlpha" operator="arithmetic" k2="-1" k3="1"/>
<feColorMatrix type="matrix" values="0 0 0 0 0 0 0 0 0 0 0 0 0 0 0 0 0 0 0.25 0"/>
<feBlend mode="normal" in2="shape" result="effect1_innerShadow_125_5"/>
</filter>
</defs>
</svg>
